<mxfile host="Electron" modified="2024-12-01T19:28:14.968Z" agent="Mozilla/5.0 (Macintosh; Intel Mac OS X 10_15_7) AppleWebKit/537.36 (KHTML, like Gecko) draw.io/24.0.4 Chrome/120.0.6099.109 Electron/28.1.0 Safari/537.36" etag="2xKlZnOShV6fGv2CgbMC" version="24.0.4" type="device">
  <diagram name="Page-1" id="ERSEP2Dv0Q_CucD9czhi">
    <mxGraphModel dx="1114" dy="769" grid="1" gridSize="10" guides="1" tooltips="1" connect="1" arrows="1" fold="1" page="1" pageScale="1" pageWidth="1100" pageHeight="850" math="0" shadow="0">
      <root>
        <mxCell id="0" />
        <mxCell id="1" parent="0" />
        <mxCell id="5jAHn_yWcTs1VlVoU_35-8" style="edgeStyle=orthogonalEdgeStyle;rounded=0;orthogonalLoop=1;jettySize=auto;html=1;entryX=0;entryY=0.5;entryDx=0;entryDy=0;" edge="1" parent="1" source="5jAHn_yWcTs1VlVoU_35-1" target="5jAHn_yWcTs1VlVoU_35-2">
          <mxGeometry relative="1" as="geometry" />
        </mxCell>
        <mxCell id="5jAHn_yWcTs1VlVoU_35-10" style="edgeStyle=orthogonalEdgeStyle;rounded=0;orthogonalLoop=1;jettySize=auto;html=1;entryX=0.5;entryY=0;entryDx=0;entryDy=0;" edge="1" parent="1" source="5jAHn_yWcTs1VlVoU_35-1" target="5jAHn_yWcTs1VlVoU_35-5">
          <mxGeometry relative="1" as="geometry" />
        </mxCell>
        <mxCell id="5jAHn_yWcTs1VlVoU_35-17" style="edgeStyle=orthogonalEdgeStyle;rounded=0;orthogonalLoop=1;jettySize=auto;html=1;entryX=0.5;entryY=1;entryDx=0;entryDy=0;" edge="1" parent="1" source="5jAHn_yWcTs1VlVoU_35-1" target="5jAHn_yWcTs1VlVoU_35-16">
          <mxGeometry relative="1" as="geometry" />
        </mxCell>
        <mxCell id="5jAHn_yWcTs1VlVoU_35-1" value="Arena" style="rounded=0;whiteSpace=wrap;html=1;" vertex="1" parent="1">
          <mxGeometry x="230" y="160" width="120" height="60" as="geometry" />
        </mxCell>
        <mxCell id="5jAHn_yWcTs1VlVoU_35-2" value="RobotBase" style="rounded=0;whiteSpace=wrap;html=1;" vertex="1" parent="1">
          <mxGeometry x="440" y="160" width="120" height="60" as="geometry" />
        </mxCell>
        <mxCell id="5jAHn_yWcTs1VlVoU_35-12" style="edgeStyle=orthogonalEdgeStyle;rounded=0;orthogonalLoop=1;jettySize=auto;html=1;entryX=0.5;entryY=1;entryDx=0;entryDy=0;" edge="1" parent="1" source="5jAHn_yWcTs1VlVoU_35-3" target="5jAHn_yWcTs1VlVoU_35-2">
          <mxGeometry relative="1" as="geometry" />
        </mxCell>
        <mxCell id="5jAHn_yWcTs1VlVoU_35-3" value="Custom Robot" style="rounded=0;whiteSpace=wrap;html=1;" vertex="1" parent="1">
          <mxGeometry x="440" y="270" width="120" height="60" as="geometry" />
        </mxCell>
        <mxCell id="5jAHn_yWcTs1VlVoU_35-6" style="edgeStyle=orthogonalEdgeStyle;rounded=0;orthogonalLoop=1;jettySize=auto;html=1;entryX=0;entryY=0.5;entryDx=0;entryDy=0;" edge="1" parent="1" source="5jAHn_yWcTs1VlVoU_35-4" target="5jAHn_yWcTs1VlVoU_35-1">
          <mxGeometry relative="1" as="geometry" />
        </mxCell>
        <mxCell id="5jAHn_yWcTs1VlVoU_35-4" value="RobotWarz" style="rounded=0;whiteSpace=wrap;html=1;" vertex="1" parent="1">
          <mxGeometry x="30" y="160" width="120" height="60" as="geometry" />
        </mxCell>
        <mxCell id="5jAHn_yWcTs1VlVoU_35-14" style="edgeStyle=orthogonalEdgeStyle;rounded=0;orthogonalLoop=1;jettySize=auto;html=1;entryX=0;entryY=0.5;entryDx=0;entryDy=0;" edge="1" parent="1" source="5jAHn_yWcTs1VlVoU_35-5" target="5jAHn_yWcTs1VlVoU_35-3">
          <mxGeometry relative="1" as="geometry" />
        </mxCell>
        <mxCell id="5jAHn_yWcTs1VlVoU_35-5" value="Robot List" style="rounded=0;whiteSpace=wrap;html=1;" vertex="1" parent="1">
          <mxGeometry x="230" y="270" width="120" height="60" as="geometry" />
        </mxCell>
        <mxCell id="5jAHn_yWcTs1VlVoU_35-7" value="Has A" style="text;html=1;align=center;verticalAlign=middle;whiteSpace=wrap;rounded=0;" vertex="1" parent="1">
          <mxGeometry x="160" y="160" width="60" height="30" as="geometry" />
        </mxCell>
        <mxCell id="5jAHn_yWcTs1VlVoU_35-9" value="Refers to" style="text;html=1;align=center;verticalAlign=middle;whiteSpace=wrap;rounded=0;" vertex="1" parent="1">
          <mxGeometry x="360" y="160" width="60" height="30" as="geometry" />
        </mxCell>
        <mxCell id="5jAHn_yWcTs1VlVoU_35-11" value="Has A" style="text;html=1;align=center;verticalAlign=middle;whiteSpace=wrap;rounded=0;" vertex="1" parent="1">
          <mxGeometry x="280" y="230" width="60" height="30" as="geometry" />
        </mxCell>
        <mxCell id="5jAHn_yWcTs1VlVoU_35-13" value="Inherits From" style="text;html=1;align=center;verticalAlign=middle;whiteSpace=wrap;rounded=0;" vertex="1" parent="1">
          <mxGeometry x="498" y="236" width="60" height="30" as="geometry" />
        </mxCell>
        <mxCell id="5jAHn_yWcTs1VlVoU_35-15" value="Has 1 to Many" style="text;html=1;align=center;verticalAlign=middle;whiteSpace=wrap;rounded=0;" vertex="1" parent="1">
          <mxGeometry x="361" y="304" width="60" height="30" as="geometry" />
        </mxCell>
        <mxCell id="5jAHn_yWcTs1VlVoU_35-16" value="Playing Board" style="rounded=0;whiteSpace=wrap;html=1;" vertex="1" parent="1">
          <mxGeometry x="230" y="50" width="120" height="60" as="geometry" />
        </mxCell>
        <mxCell id="5jAHn_yWcTs1VlVoU_35-18" value="Has A" style="text;html=1;align=center;verticalAlign=middle;whiteSpace=wrap;rounded=0;" vertex="1" parent="1">
          <mxGeometry x="290" y="120" width="60" height="30" as="geometry" />
        </mxCell>
      </root>
    </mxGraphModel>
  </diagram>
</mxfile>
